<?xml version="1.0"?>
<svg xmlns="http://www.w3.org/2000/svg" xmlns:xlink="http://www.w3.org/1999/xlink" version="1.1" id="Capa_1" x="0px" y="0px" viewBox="0 0 512 512" style="enable-background:new 0 0 512 512;" xml:space="preserve" width="512px" height="512px"><g><g>
	<g>
		<path d="M503.343,0H8.657c-4.78,0-8.656,3.876-8.656,8.656v41.869c0,4.78,3.876,8.656,8.656,8.656h494.685    c4.78,0,8.656-3.876,8.656-8.656V8.656C511.999,3.876,508.123,0,503.343,0z M494.687,41.869H17.313V17.312h477.373V41.869z" data-original="#000000" class="active-path" data-old_color="#000000" fill="#282560"/>
	</g>
</g><g>
	<g>
		<path d="M503.343,306.801H8.657c-4.78,0-8.656,3.876-8.656,8.656v41.868c0,4.78,3.876,8.656,8.656,8.656h494.685    c4.78,0,8.656-3.876,8.656-8.656v-41.868C511.999,310.676,508.123,306.801,503.343,306.801z M494.687,348.668H17.313v-24.555    h477.373V348.668z" data-original="#000000" class="active-path" data-old_color="#000000" fill="#282560"/>
	</g>
</g><g>
	<g>
		<path d="M475.798,41.869H36.202c-4.78,0-8.656,3.876-8.656,8.656v264.932c0,4.78,3.876,8.656,8.656,8.656h439.595    c4.779,0,8.656-3.876,8.656-8.656V50.525C484.454,45.745,480.578,41.869,475.798,41.869z M467.141,306.801H44.859V59.181h422.283    V306.801z" data-original="#000000" class="active-path" data-old_color="#000000" fill="#282560"/>
	</g>
</g><g>
	<g>
		<path d="M234.912,81.923h-50.098c-4.78,0-8.656,3.876-8.656,8.656v184.836c0,4.78,3.876,8.656,8.656,8.656h50.098    c4.78,0,8.656-3.876,8.656-8.656V90.58C243.568,85.799,239.692,81.923,234.912,81.923z M226.256,266.759H193.47V99.236h32.785    V266.759z" data-original="#000000" class="active-path" data-old_color="#000000" fill="#282560"/>
	</g>
</g><g>
	<g>
		<path d="M327.193,159.976h-50.099c-4.78,0-8.656,3.876-8.656,8.656v106.783c0,4.78,3.876,8.656,8.656,8.656h50.099    c4.78,0,8.656-3.876,8.656-8.656V168.632C335.85,163.852,331.974,159.976,327.193,159.976z M318.537,266.759h-32.786v-89.47    h32.786V266.759z" data-original="#000000" class="active-path" data-old_color="#000000" fill="#282560"/>
	</g>
</g><g>
	<g>
		<path d="M142.631,133.958H92.443c-4.78,0-8.656,3.876-8.656,8.656v132.801c0,4.78,3.876,8.656,8.656,8.656h50.188    c4.781,0,8.656-3.876,8.657-8.656V142.614C151.288,137.834,147.412,133.958,142.631,133.958z M133.975,266.759h-32.876V151.27    h32.876V266.759z" data-original="#000000" class="active-path" data-old_color="#000000" fill="#282560"/>
	</g>
</g><g>
	<g>
		<path d="M419.565,114.889h-50.189c-4.78,0-8.656,3.876-8.656,8.656v151.87c0,4.78,3.876,8.656,8.656,8.656h50.189    c4.78,0,8.656-3.876,8.656-8.656v-151.87C428.221,118.765,424.345,114.889,419.565,114.889z M410.909,266.759h-32.876V132.202    h32.876V266.759z" data-original="#000000" class="active-path" data-old_color="#000000" fill="#282560"/>
	</g>
</g><g>
	<g>
		<path d="M255.999,348.668c-4.78,0-8.656,3.876-8.656,8.656v107.186c0,4.78,3.876,8.656,8.656,8.656    c4.781,0,8.656-3.876,8.656-8.656V357.325C264.656,352.544,260.78,348.668,255.999,348.668z" data-original="#000000" class="active-path" data-old_color="#000000" fill="#282560"/>
	</g>
</g><g>
	<g>
		<path d="M174.025,349.027c-4.585-1.36-9.401,1.258-10.758,5.843L120.04,500.885c-1.357,4.583,1.26,9.4,5.843,10.756    c0.819,0.243,1.647,0.358,2.461,0.358c3.735,0,7.181-2.437,8.297-6.201l43.228-146.016    C181.225,355.199,178.609,350.383,174.025,349.027z" data-original="#000000" class="active-path" data-old_color="#000000" fill="#282560"/>
	</g>
</g><g>
	<g>
		<path d="M391.959,500.884L348.73,354.868c-1.357-4.581-6.168-7.202-10.758-5.842c-4.583,1.357-7.199,6.173-5.842,10.757    L375.36,505.8c1.115,3.763,4.561,6.2,8.297,6.2c0.813,0,1.641-0.116,2.461-0.358C390.701,510.285,393.316,505.469,391.959,500.884    z" data-original="#000000" class="active-path" data-old_color="#000000" fill="#282560"/>
	</g>
</g></g> </svg>
