<?xml version="1.0"?>
<svg xmlns="http://www.w3.org/2000/svg" height="512px" viewBox="-10 0 511 512" width="512px" class=""><g><path d="m110.5 205c0 52.382812 42.617188 95 95 95s95-42.617188 95-95-42.617188-95-95-95-95 42.617188-95 95zm150 0c0 30.328125-24.671875 55-55 55s-55-24.671875-55-55 24.671875-55 55-55 55 24.671875 55 55zm-39.378906 240.667969c4.792968 13.136719 11.261718 25.46875 19.144531 36.746093-12.949219 11.636719-21.390625 18.488282-22.195313 19.140626l-12.570312 10.15625-12.570312-10.152344c-1.941407-1.574219-48.148438-39.085938-95.011719-92.890625-64.640625-74.214844-97.417969-140.832031-97.417969-198v-5.667969c0-113.035156 91.964844-205 205-205s205 91.964844 205 205v5.667969c0 8.035156-.671875 16.265625-1.964844 24.667969-11.890625-2.828126-24.289062-4.335938-37.035156-4.335938-.917969 0-1.832031.019531-2.746094.035156 1.125-6.863281 1.746094-13.667968 1.746094-20.367187v-5.667969c0-90.980469-74.019531-165-165-165s-165 74.019531-165 165v5.667969c0 96.601562 124.46875 213.546875 165 249.0625 4.332031-3.796875 9.628906-8.53125 15.621094-14.0625zm150.378906-173.667969c-66.167969 0-120 53.832031-120 120s53.832031 120 120 120 120-53.832031 120-120-53.832031-120-120-120zm0 200c-44.113281 0-80-35.886719-80-80s35.886719-80 80-80 80 35.886719 80 80-35.886719 80-80 80zm20-100h27v40h-67v-76h40zm0 0" data-original="#000000" class="active-path" data-old_color="#000000" fill="#282560"/></g> </svg>
