<?xml version="1.0"?>
<svg xmlns="http://www.w3.org/2000/svg" xmlns:xlink="http://www.w3.org/1999/xlink" version="1.1" id="Capa_1" x="0px" y="0px" viewBox="0 0 512 512" style="enable-background:new 0 0 512 512;" xml:space="preserve" width="512px" height="512px" class=""><g><g>
	<g>
		<path d="M256,0C148.477,0,61,87.632,61,195.347c0,44.578,31.265,109.688,92.924,193.521    c44.977,61.15,90.609,110.713,91.064,111.206L256,512l11.012-11.926c0.455-0.493,46.088-50.057,91.064-111.206    C419.735,305.035,451,239.926,451,195.347C451,87.632,363.523,0,256,0z M334.085,370.822    c-30.869,41.991-62.065,78.405-78.085,96.562c-16.02-18.157-47.216-54.572-78.085-96.562C121.055,293.477,91,232.799,91,195.347    c0-91.143,74.019-165.294,165-165.294s165,74.15,165,165.294C421,232.799,390.945,293.477,334.085,370.822z" data-original="#000000" class="active-path" data-old_color="#000000" fill="#282560"/>
	</g>
</g><g>
	<g>
		<path d="M390.981,190.5C390.173,116.75,329.938,57,256,57c-74.439,0-135,60.561-135,135s60.561,135,135,135v-30    c-57.897,0-105-47.103-105-105c0-57.897,47.103-105,105-105c57.396,0,104.175,46.292,104.981,103.5h-16.188L376,221.707    l31.207-31.207H390.981z" data-original="#000000" class="active-path" data-old_color="#000000" fill="#282560"/>
	</g>
</g><g>
	<g>
		<polygon points="271,194 271,111 241,111 241,224 328,224 328,194   " data-original="#000000" class="active-path" data-old_color="#000000" fill="#282560"/>
	</g>
</g></g> </svg>
